<?xml version="1.0" standalone="no"?>
<!DOCTYPE svg PUBLIC "-//W3C//DTD SVG 20010904//EN"
 "http://www.w3.org/TR/2001/REC-SVG-20010904/DTD/svg10.dtd">
<svg version="1.0" xmlns="http://www.w3.org/2000/svg"
 width="700.000000pt" height="700.000000pt" viewBox="0 0 700.000000 700.000000"
 preserveAspectRatio="xMidYMid meet">
<metadata>
Created by potrace 1.14, written by Peter Selinger 2001-2017
</metadata>
<g transform="translate(0.000000,700.000000) scale(0.100000,-0.100000)"
fill="#000000" stroke="none">
<path d="M0 3500 l0 -3500 3500 0 3500 0 0 3500 0 3500 -3500 0 -3500 0 0
-3500z m5211 2705 c668 -117 1070 -825 822 -1449 -105 -264 -284 -458 -538
-581 -416 -203 -903 -120 -1230 210 -375 377 -419 969 -104 1396 104 141 266
272 424 344 189 87 421 116 626 80z m-2992 -3295 c194 -47 347 -130 491 -267
176 -167 282 -357 324 -583 21 -106 21 -304 0 -410 -72 -383 -356 -703 -729
-823 -128 -41 -191 -51 -335 -50 -153 0 -246 16 -382 67 -591 222 -868 923
-588 1487 157 318 453 538 798 594 116 19 310 12 421 -15z m3076 -4 c119 -31
292 -114 386 -185 144 -110 280 -285 345 -446 65 -159 77 -222 78 -410 1 -215
-22 -321 -110 -496 -260 -521 -896 -742 -1421 -494 -321 152 -544 438 -608
781 -20 102 -22 291 -5 384 84 461 450 817 915 890 105 16 307 4 420 -24z"/>
</g>
</svg>
